<?xml version="1.0" encoding="UTF-8"?>
<svg width="197px" height="62px" viewBox="0 0 197 62" version="1.1" xmlns="http://www.w3.org/2000/svg" xmlns:xlink="http://www.w3.org/1999/xlink">
    <!-- Generator: Sketch 51.2 (57519) - http://www.bohemiancoding.com/sketch -->
    <title>benitec_logo_footer</title>
    <desc>Created with Sketch.</desc>
    <defs></defs>
    <g id="Page-1" stroke="none" stroke-width="1" fill="none" fill-rule="evenodd">
        <g id="Home---V2-Icons" transform="translate(-720.000000, -2858.000000)" fill-rule="nonzero">
            <g id="testimonials" transform="translate(0.000000, 2476.000000)">
                <g id="benitec_logo_footer" transform="translate(720.000000, 382.000000)">
                    <g id="Group" transform="translate(45.000000, 12.000000)" fill="#384370">
                        <path d="M142.5,17.6375 C140.172414,17.6375 138.275862,16.9575 136.767241,15.555 C135.258621,14.1525 134.525862,12.3675 134.525862,10.2 C134.525862,8.0325 135.301724,6.2475 136.810345,4.845 C138.318966,3.4 140.215517,2.72 142.543103,2.72 C144.784483,2.72 147.068966,3.4 149.439655,4.7175 L149.439655,1.6575 C146.853448,0.5525 144.525862,0.0425 142.413793,0.0425 C139.353448,0.0425 136.810345,1.02 134.698276,2.975 C132.62931,4.93 131.594828,7.3525 131.594828,10.2425 C131.594828,12.07 132.068966,13.7275 132.974138,15.3 C133.87931,16.8725 135.12931,18.0625 136.681034,18.955 C138.232759,19.8475 140.12931,20.2725 142.37069,20.2725 C145.12931,20.2725 147.543103,19.72 149.655172,18.5725 L149.655172,15.47 C147.284483,16.8725 144.913793,17.6375 142.5,17.6375 Z M111.293103,19.975 L122.931034,19.975 L122.931034,17.4675 L114.181034,17.4675 L114.181034,11.305 L122.37069,11.305 L122.37069,8.755 L114.181034,8.755 L114.181034,2.7625 L122.672414,2.7625 L122.672414,0.255 L111.293103,0.255 L111.293103,19.975 Z M85.5172414,2.72 L92.4137931,2.72 L92.4137931,20.0175 L95.3017241,20.0175 L95.3017241,2.72 L102.284483,2.72 L102.284483,0.2125 L85.5172414,0.2125 L85.5172414,2.72 Z M73.5775862,20.0175 L76.4655172,20.0175 L76.4655172,0.2125 L73.5775862,0.2125 L73.5775862,20.0175 Z M60.2155172,15.5975 L46.6810345,0.255 L44.3534483,0.255 L44.3534483,20.0175 L47.0689655,20.0175 L47.0689655,4.76 L60.4741379,19.975 L62.9310345,19.975 L62.9310345,0.2125 L60.2155172,0.2125 L60.2155172,15.5975 Z M23.2327586,19.975 L34.8706897,19.975 L34.8706897,17.4675 L26.0775862,17.4675 L26.0775862,11.305 L34.3103448,11.305 L34.3103448,8.755 L26.0775862,8.755 L26.0775862,2.7625 L34.5689655,2.7625 L34.5689655,0.255 L23.2327586,0.255 L23.2327586,19.975 Z M9.05172414,11.6025 C9.69827586,11.8575 10.2155172,12.24 10.5603448,12.7075 C10.9051724,13.2175 11.1206897,13.77 11.1206897,14.365 C11.1206897,14.96 10.9482759,15.5125 10.6034483,16.0225 C10.2586207,16.5325 9.82758621,16.915 9.26724138,17.17 C8.70689655,17.425 7.62931034,17.51 6.07758621,17.51 L3.23275862,17.51 L3.23275862,11.22 L5.90517241,11.22 C7.32758621,11.22 8.36206897,11.3475 9.05172414,11.6025 Z M9.35344828,5.61 C9.35344828,6.545 9.05172414,7.2675 8.40517241,7.8625 C7.75862069,8.4575 6.68103448,8.7125 5.12931034,8.7125 L3.23275862,8.7125 L3.23275862,2.7625 L5.68965517,2.7625 C8.14655172,2.7625 9.35344828,3.6975 9.35344828,5.61 Z M10.9482759,19.2525 C11.9827586,18.7425 12.7586207,18.105 13.2758621,17.2975 C13.7931034,16.49 14.0517241,15.5975 14.0517241,14.5775 C14.0517241,13.3025 13.6206897,12.1975 12.7586207,11.305 C11.8965517,10.37 10.7327586,9.775 9.26724138,9.52 C11.2931034,8.67 12.3275862,7.2675 12.3275862,5.355 C12.3275862,4.335 12.0689655,3.4425 11.5948276,2.6775 C11.1206897,1.9125 10.387931,1.3175 9.48275862,0.85 C8.53448276,0.425 7.24137931,0.17 5.60344828,0.17 L0.344827586,0.17 L0.344827586,19.9325 L7.15517241,19.9325 C8.6637931,20.0175 9.95689655,19.7625 10.9482759,19.2525 Z" id="Shape"></path>
                        <path d="M4.74137931,31.4925 C4.74137931,31.7475 4.65517241,31.96 4.52586207,32.1725 C4.39655172,32.385 4.22413793,32.5125 3.96551724,32.64 C3.75,32.725 3.31896552,32.7675 2.67241379,32.7675 L1.50862069,32.7675 L1.50862069,30.2175 L2.5862069,30.2175 C3.14655172,30.2175 3.57758621,30.26 3.87931034,30.3875 C4.13793103,30.4725 4.35344828,30.6425 4.52586207,30.855 C4.65517241,31.025 4.74137931,31.2375 4.74137931,31.4925 M3.62068966,28.8575 C3.36206897,29.1125 2.93103448,29.1975 2.28448276,29.1975 L1.50862069,29.1975 L1.50862069,26.775 L2.5,26.775 C3.49137931,26.775 4.00862069,27.1575 4.00862069,27.9225 C4.05172414,28.305 3.87931034,28.6025 3.62068966,28.8575 M5.43103448,30.26 C5.0862069,29.8775 4.61206897,29.6225 4.00862069,29.5375 C4.82758621,29.1975 5.25862069,28.645 5.25862069,27.8375 C5.25862069,27.4125 5.17241379,27.0725 4.95689655,26.7325 C4.74137931,26.435 4.48275862,26.18 4.09482759,26.01 C3.70689655,25.84 3.18965517,25.755 2.5,25.755 L0.344827586,25.755 L0.344827586,33.83 L3.10344828,33.83 C3.75,33.83 4.26724138,33.745 4.65517241,33.5325 C5.0862069,33.32 5.38793103,33.065 5.60344828,32.725 C5.81896552,32.385 5.90517241,32.045 5.90517241,31.62 C5.94827586,31.0675 5.77586207,30.6425 5.43103448,30.26" id="Shape"></path>
                    </g>
                    <rect id="Rectangle-path" fill="#384370" x="63" y="38" width="1" height="8"></rect>
                    <g id="Group" transform="translate(75.000000, 38.000000)" fill="#384370">
                        <path d="M7.93,4.5 C7.93,5.445 7.62666667,6.21 7.02,6.84 C6.41333333,7.47 5.63333333,7.785 4.72333333,7.785 C3.81333333,7.785 3.03333333,7.47 2.42666667,6.885 C1.82,6.255 1.51666667,5.49 1.51666667,4.59 C1.51666667,3.645 1.82,2.88 2.42666667,2.25 C3.03333333,1.62 3.81333333,1.35 4.76666667,1.35 C5.67666667,1.35 6.41333333,1.665 7.02,2.295 C7.62666667,2.835 7.93,3.6 7.93,4.5 M9.14333333,4.545 C9.14333333,3.285 8.71,2.25 7.88666667,1.395 C7.02,0.54 5.98,0.135 4.72333333,0.135 C3.46666667,0.135 2.38333333,0.54 1.56,1.395 C0.736666667,2.25 0.303333333,3.285 0.303333333,4.545 C0.303333333,5.805 0.736666667,6.84 1.56,7.65 C2.38333333,8.46 3.42333333,8.91 4.68,8.91 C5.98,8.91 7.06333333,8.505 7.93,7.65 C8.71,6.84 9.14333333,5.805 9.14333333,4.545" id="Shape"></path>
                        <path d="M24.6133333,2.655 C24.6133333,3.105 24.4833333,3.42 24.2233333,3.645 C23.9633333,3.87 23.5733333,4.005 23.0966667,4.005 L21.7966667,4.005 L21.7966667,1.35 L23.01,1.35 C24.0933333,1.305 24.6133333,1.755 24.6133333,2.655 M25.87,2.655 C25.87,1.935 25.6533333,1.305 25.1766667,0.9 C24.7,0.45 24.0933333,0.225 23.3133333,0.225 L20.7133333,0.225 L20.7133333,8.775 L21.8833333,8.775 L21.8833333,5.085 L22.75,5.085 C23.53,5.085 24.1366667,4.995 24.5266667,4.815 C24.96,4.635 25.2633333,4.365 25.5233333,3.96 C25.74,3.6 25.87,3.15 25.87,2.655" id="Shape"></path>
                    </g>
                    <polygon id="Shape" fill="#384370" points="118.826087 41.4708995 114.173913 41.4708995 114.173913 38 113 38 113 46 114.173913 46 114.173913 42.5291005 118.826087 42.5291005 118.826087 46 120 46 120 38 118.826087 38"></polygon>
                    <path d="M136.247312,42.6492147 L133.709677,42.6492147 L134.913978,39.7591623 L136.247312,42.6492147 Z M139,46 L135.344086,38 L134.526882,38 L131,46 L132.204301,46 L133.236559,43.6544503 L136.72043,43.6544503 L137.795699,46 L139,46 Z" id="Shape" fill="#384370"></path>
                    <path d="M153.22449,40.9052632 C153.102041,41.1157895 152.938776,41.2421053 152.734694,41.3684211 C152.530612,41.4526316 152.122449,41.5368421 151.591837,41.5368421 L151.183673,41.5368421 L151.183673,39.0105263 L151.510204,39.0105263 C152.040816,39.0105263 152.44898,39.0526316 152.693878,39.1368421 C152.938776,39.2210526 153.102041,39.3473684 153.22449,39.5578947 C153.346939,39.7684211 153.428571,39.9789474 153.428571,40.2315789 C153.387755,40.4842105 153.306122,40.7368421 153.22449,40.9052632 Z M156,46 L155.591837,45.4105263 C155.428571,45.2 155.22449,44.8210526 154.938776,44.4 C154.489796,43.6842105 154.163265,43.1789474 153.959184,42.8842105 C153.714286,42.5894737 153.469388,42.3789474 153.22449,42.2105263 C153.632653,42.0421053 153.959184,41.7894737 154.204082,41.4526316 C154.44898,41.1157895 154.530612,40.6947368 154.530612,40.2315789 C154.530612,39.5578947 154.285714,39.0105263 153.836735,38.5894737 C153.387755,38.1684211 152.734694,38 151.959184,38 L150,38 L150,46 L151.102041,46 L151.102041,42.5052632 L151.387755,42.5052632 C151.755102,42.5052632 152,42.5473684 152.163265,42.6315789 C152.326531,42.7157895 152.489796,42.8421053 152.693878,43.0526316 C152.897959,43.2631579 153.102041,43.5157895 153.306122,43.8526316 L153.673469,44.4842105 L154,45.0736842 L154.204082,45.3684211 C154.244898,45.4105263 154.244898,45.4526316 154.285714,45.4526316 L154.612245,46 C154.612245,46 156,46 156,46 Z" id="Shape" fill="#384370"></path>
                    <polygon id="Shape" fill="#384370" points="171.977401 41.3015873 169.129944 38 168 38 168 46 169.220339 46 169.220339 39.7777778 171.887006 42.8677249 172.112994 42.8677249 174.734463 39.7777778 174.734463 46 176 46 176 38 174.824859 38"></polygon>
                    <path d="M192.204301,42.6492147 L189.666667,42.6492147 L190.870968,39.7591623 L192.204301,42.6492147 Z M195,46 L191.344086,38 L190.526882,38 L187,46 L188.204301,46 L189.236559,43.6544503 L192.72043,43.6544503 L193.795699,46 L195,46 Z" id="Shape" fill="#384370"></path>
                    <g id="Group">
                        <path d="M34.9862069,26.52 C33.7632184,24.96 31.8413793,23.0966667 28.9149425,20.93 C44.1149425,35.1 4.71724138,29.9433333 16.4229885,45.4566667 C17.645977,47.2333333 19.7425287,49.3566667 22.8873563,51.8266667 L22.2758621,51.0466667 C9.78390805,36.4433333 48.4827586,41.73 34.9862069,26.52" id="Shape" fill="#384370"></path>
                        <path d="M21.5770115,0.0433333333 C56.6942529,26.3466667 -8.29885057,17.4633333 10.3954023,39.39 L11.2689655,40.4733333 C-25.7264368,11.2233333 44.4643678,21.3633333 21.5770115,0.0433333333" id="Shape" fill="#F89829"></path>
                    </g>
                    <rect id="Rectangle-path" fill="#F89829" x="52" y="54" width="1" height="5"></rect>
                    <rect id="Rectangle-path" fill="#F89829" x="57" y="52" width="1" height="8"></rect>
                    <g id="Group" transform="translate(61.000000, 52.000000)" fill="#F89829">
                        <path d="M4.07894737,4.31111111 L1.44736842,4.31111111 C1.53508772,3.91111111 1.66666667,3.55555556 1.88596491,3.33333333 C2.10526316,3.11111111 2.4122807,2.97777778 2.80701754,2.97777778 C3.15789474,2.97777778 3.46491228,3.11111111 3.68421053,3.33333333 C3.94736842,3.6 4.03508772,3.91111111 4.07894737,4.31111111 Z M5.0877193,4.93333333 L5.0877193,4.8 C5.0877193,4 4.86842105,3.33333333 4.47368421,2.84444444 C4.07894737,2.35555556 3.50877193,2.13333333 2.80701754,2.13333333 C2.10526316,2.13333333 1.49122807,2.4 1.05263158,2.88888889 C0.614035088,3.37777778 0.394736842,4.04444444 0.394736842,4.84444444 C0.394736842,5.37777778 0.48245614,5.86666667 0.701754386,6.26666667 C0.921052632,6.66666667 1.18421053,6.97777778 1.53508772,7.24444444 C1.88596491,7.46666667 2.36842105,7.6 2.93859649,7.6 C3.37719298,7.6 3.72807018,7.55555556 4.03508772,7.46666667 C4.34210526,7.37777778 4.64912281,7.24444444 4.95614035,7.02222222 L4.95614035,6 C4.38596491,6.44444444 3.77192982,6.62222222 3.07017544,6.62222222 C2.5877193,6.62222222 2.19298246,6.48888889 1.88596491,6.17777778 C1.57894737,5.86666667 1.40350877,5.46666667 1.40350877,4.97777778 L5.0877193,4.93333333 Z" id="Shape"></path>
                        <path d="M8.33333333,2.22222222 L8.33333333,7.46666667 L9.38596491,7.46666667 L9.38596491,3.68888889 C9.73684211,3.2 10.1315789,2.93333333 10.6140351,2.93333333 C11.0087719,2.93333333 11.2719298,3.06666667 11.4473684,3.28888889 C11.622807,3.51111111 11.7105263,3.91111111 11.7105263,4.44444444 L11.7105263,7.42222222 L12.7192982,7.42222222 L12.7192982,4.4 C12.7192982,3.77777778 12.6315789,3.28888889 12.5,2.97777778 C12.3684211,2.66666667 12.1491228,2.44444444 11.8859649,2.26666667 C11.622807,2.08888889 11.3157895,2 10.9649123,2 C10.3947368,2 9.86842105,2.26666667 9.38596491,2.75555556 L9.38596491,2.08888889 L8.33333333,2.08888889 L8.33333333,2.22222222 Z" id="Shape"></path>
                        <path d="M18.8157895,6.57777778 C18.2894737,6.57777778 17.8508772,6.4 17.5,6.08888889 C17.1929825,5.77777778 17.0175439,5.33333333 17.0175439,4.8 C17.0175439,4.26666667 17.1491228,3.86666667 17.4561404,3.55555556 C17.7631579,3.24444444 18.1140351,3.06666667 18.5964912,3.06666667 C19.0350877,3.06666667 19.5175439,3.24444444 20.0438596,3.55555556 L20.0438596,2.48888889 C19.7368421,2.35555556 19.4736842,2.26666667 19.254386,2.17777778 C19.0350877,2.13333333 18.8157895,2.08888889 18.5526316,2.08888889 C17.7631579,2.08888889 17.1491228,2.35555556 16.7105263,2.84444444 C16.2280702,3.33333333 16.0087719,4 16.0087719,4.84444444 C16.0087719,5.64444444 16.2719298,6.31111111 16.754386,6.8 C17.2368421,7.28888889 17.8947368,7.51111111 18.6842105,7.51111111 C19.1666667,7.51111111 19.6929825,7.42222222 20.2192982,7.2 L20.2192982,6.17777778 C19.6491228,6.48888889 19.2105263,6.57777778 18.8157895,6.57777778" id="Shape"></path>
                        <path d="M23.5964912,0.177777778 C23.4649123,0.311111111 23.4210526,0.444444444 23.4210526,0.622222222 C23.4210526,0.8 23.4649123,0.933333333 23.5964912,1.06666667 C23.7280702,1.2 23.8596491,1.24444444 24.0350877,1.24444444 C24.2105263,1.24444444 24.3421053,1.2 24.4736842,1.06666667 C24.6052632,0.933333333 24.6491228,0.8 24.6491228,0.622222222 C24.6491228,0.444444444 24.6052632,0.311111111 24.4736842,0.177777778 C24.3421053,0.0444444444 24.2105263,0 24.0350877,0 C23.8157895,0 23.6842105,0.0444444444 23.5964912,0.177777778" id="Shape"></path>
                    </g>
                    <rect id="Rectangle-path" fill="#F89829" x="84" y="54" width="1" height="5"></rect>
                    <g id="Group" transform="translate(45.000000, 51.000000)" fill="#F89829">
                        <path d="M43.1526502,3.08 L43.1526502,8.272 L44.1872792,8.272 L44.1872792,4.532 C44.5321555,4.048 44.9201413,3.784 45.3943463,3.784 C45.7823322,3.784 46.0409894,3.916 46.2134276,4.136 C46.3858657,4.356 46.4720848,4.752 46.4720848,5.28 L46.4720848,8.228 L47.4636042,8.228 L47.4636042,5.236 C47.4636042,4.62 47.3773852,4.136 47.2480565,3.828 C47.1187279,3.52 46.9031802,3.3 46.644523,3.124 C46.3858657,2.948 46.0840989,2.86 45.7392226,2.86 C45.1787986,2.86 44.6614841,3.124 44.1872792,3.608 L44.1872792,2.948 L43.1526502,2.948 L43.1526502,3.08 Z" id="Shape"></path>
                        <path d="M53.585159,4.928 C53.585159,5.192 53.4989399,5.412 53.2833922,5.588 C53.1109541,5.764 52.8522968,5.852 52.55053,5.852 C52.2487633,5.852 52.0332155,5.764 51.8176678,5.588 C51.6452297,5.412 51.5159011,5.192 51.5159011,4.928 C51.5159011,4.664 51.6021201,4.444 51.8176678,4.268 C51.990106,4.092 52.2487633,4.004 52.5074205,4.004 C52.8091873,4.004 53.024735,4.092 53.2402827,4.268 C53.4989399,4.4 53.585159,4.664 53.585159,4.928 Z M52.3349823,8.536 C52.8091873,8.536 53.2402827,8.624 53.5420495,8.756 C53.8438163,8.888 54.0162544,9.108 54.0162544,9.328 C54.0162544,9.592 53.8869258,9.768 53.6282686,9.9 C53.3696113,10.032 53.024735,10.12 52.5936396,10.12 C51.6452297,10.12 51.1710247,9.856 51.1710247,9.328 C51.1710247,9.108 51.3003534,8.888 51.5159011,8.756 C51.7314488,8.58 52.0332155,8.536 52.3349823,8.536 Z M55.0077739,3.872 L55.0077739,3.08 L52.8954064,3.08 C52.2056537,3.08 51.6452297,3.256 51.2572438,3.564 C50.869258,3.872 50.6537102,4.312 50.6537102,4.884 C50.6537102,5.632 51.0416961,6.204 51.7745583,6.512 C51.5159011,6.556 51.3434629,6.688 51.1710247,6.82 C51.0416961,6.952 50.955477,7.128 50.955477,7.26 C50.955477,7.48 51.1279152,7.7 51.4727915,7.92 C50.6106007,8.14 50.1795053,8.58 50.1795053,9.284 C50.1795053,9.768 50.395053,10.164 50.8261484,10.472 C51.2572438,10.78 51.8607774,10.912 52.55053,10.912 C53.2833922,10.912 53.8438163,10.78 54.2749117,10.472 C54.7060071,10.164 54.9215548,9.768 54.9215548,9.284 C54.9215548,8.888 54.7922261,8.58 54.5766784,8.36 C54.4473498,8.228 54.2749117,8.096 54.1024735,8.008 C53.9300353,7.92 53.5420495,7.832 52.8954064,7.7 C52.5074205,7.612 52.2487633,7.524 52.1194346,7.48 C51.990106,7.392 51.9038869,7.304 51.9038869,7.172 C51.9038869,6.952 52.0763251,6.82 52.464311,6.776 C53.024735,6.688 53.4127208,6.6 53.6282686,6.424 C53.8869258,6.292 54.059364,6.072 54.2318021,5.808 C54.4042403,5.544 54.4473498,5.28 54.4473498,5.016 C54.4473498,4.796 54.4042403,4.62 54.3180212,4.444 C54.2318021,4.268 54.1024735,4.092 53.8869258,3.872 L55.0077739,3.872 Z" id="Shape"></path>
                        <path d="M65.8282686,4.928 C65.8282686,5.192 65.7420495,5.412 65.5265018,5.588 C65.3540636,5.764 65.0954064,5.852 64.7936396,5.852 C64.4918728,5.852 64.2763251,5.764 64.0607774,5.588 C63.8883392,5.412 63.7590106,5.192 63.7590106,4.928 C63.7590106,4.664 63.8452297,4.444 64.0607774,4.268 C64.2332155,4.092 64.4918728,4.004 64.75053,4.004 C65.0522968,4.004 65.2678445,4.092 65.4833922,4.268 C65.6989399,4.4 65.8282686,4.664 65.8282686,4.928 Z M64.5780919,8.536 C65.0522968,8.536 65.4833922,8.624 65.785159,8.756 C66.0869258,8.888 66.259364,9.108 66.259364,9.328 C66.259364,9.592 66.1300353,9.768 65.8713781,9.9 C65.6127208,10.032 65.2678445,10.12 64.8367491,10.12 C63.8883392,10.12 63.4141343,9.856 63.4141343,9.328 C63.4141343,9.108 63.5434629,8.888 63.7590106,8.756 C63.9314488,8.58 64.2332155,8.536 64.5780919,8.536 Z M67.2508834,3.872 L67.2508834,3.08 L65.1385159,3.08 C64.4487633,3.08 63.8883392,3.256 63.5003534,3.564 C63.1123675,3.872 62.8968198,4.312 62.8968198,4.884 C62.8968198,5.632 63.2848057,6.204 64.0176678,6.512 C63.7590106,6.556 63.5865724,6.688 63.4141343,6.82 C63.2848057,6.952 63.1985866,7.128 63.1985866,7.26 C63.1985866,7.48 63.3710247,7.7 63.7159011,7.92 C62.8537102,8.14 62.4226148,8.58 62.4226148,9.284 C62.4226148,9.768 62.6381625,10.164 63.069258,10.472 C63.5003534,10.78 64.1038869,10.912 64.7936396,10.912 C65.5265018,10.912 66.0869258,10.78 66.5180212,10.472 C66.9491166,10.164 67.1646643,9.768 67.1646643,9.284 C67.1646643,8.888 67.0353357,8.58 66.819788,8.36 C66.6904594,8.228 66.5180212,8.096 66.345583,8.008 C66.1731449,7.92 65.785159,7.832 65.1385159,7.7 C64.75053,7.612 64.4918728,7.524 64.3625442,7.48 C64.2332155,7.392 64.1469965,7.304 64.1469965,7.172 C64.1469965,6.952 64.3194346,6.82 64.7074205,6.776 C65.2678445,6.688 65.6558304,6.6 65.8713781,6.424 C66.1300353,6.292 66.3024735,6.072 66.4749117,5.808 C66.6473498,5.544 66.6904594,5.28 66.6904594,5.016 C66.6904594,4.796 66.6473498,4.62 66.5611307,4.444 C66.4749117,4.268 66.345583,4.092 66.1300353,3.872 L67.2508834,3.872 Z" id="Shape"></path>
                        <path d="M73.4586572,5.148 L70.8720848,5.148 C70.9583039,4.752 71.0876325,4.4 71.3031802,4.18 C71.5187279,3.96 71.8204947,3.828 72.2084806,3.828 C72.5533569,3.828 72.8551237,3.96 73.0706714,4.18 C73.3293286,4.444 73.4586572,4.752 73.4586572,5.148 Z M74.4501767,5.764 L74.4501767,5.632 C74.4501767,4.84 74.234629,4.18 73.8466431,3.696 C73.4586572,3.212 72.8982332,2.992 72.2084806,2.992 C71.5187279,2.992 70.9151943,3.256 70.4840989,3.74 C70.0530035,4.224 69.8374558,4.884 69.8374558,5.676 C69.8374558,6.204 69.9236749,6.688 70.1392226,7.084 C70.3547703,7.48 70.6134276,7.788 70.9583039,8.052 C71.3031802,8.272 71.7773852,8.404 72.3378092,8.404 C72.7689046,8.404 73.1137809,8.36 73.4155477,8.272 C73.7173145,8.184 74.0190813,8.052 74.3208481,7.832 L74.3208481,6.82 C73.760424,7.26 73.1568905,7.436 72.4671378,7.436 C71.9929329,7.436 71.604947,7.304 71.3031802,6.996 C71.0014134,6.688 70.8289753,6.292 70.8289753,5.808 L74.4501767,5.764 Z" id="Shape"></path>
                        <path d="M77.6402827,3.08 L77.6402827,8.272 L78.6749117,8.272 L78.6749117,4.532 C79.019788,4.048 79.4077739,3.784 79.8819788,3.784 C80.2699647,3.784 80.5286219,3.916 80.7010601,4.136 C80.8734982,4.356 80.9597173,4.752 80.9597173,5.28 L80.9597173,8.228 L81.9512367,8.228 L81.9512367,5.236 C81.9512367,4.62 81.8650177,4.136 81.735689,3.828 C81.6063604,3.52 81.3908127,3.3 81.1321555,3.124 C80.8734982,2.948 80.5717314,2.86 80.2268551,2.86 C79.6664311,2.86 79.1491166,3.124 78.6749117,3.608 L78.6749117,2.948 L77.6402827,2.948 L77.6402827,3.08 Z" id="Shape"></path>
                        <path d="M88.8056537,5.148 L86.2190813,5.148 C86.3053004,4.752 86.434629,4.4 86.6501767,4.18 C86.8657244,3.96 87.1674912,3.828 87.555477,3.828 C87.9003534,3.828 88.2021201,3.96 88.4176678,4.18 C88.6332155,4.444 88.7625442,4.752 88.8056537,5.148 Z M89.7971731,5.764 L89.7971731,5.632 C89.7971731,4.84 89.5816254,4.18 89.1936396,3.696 C88.8056537,3.212 88.2452297,2.992 87.555477,2.992 C86.8657244,2.992 86.2621908,3.256 85.8310954,3.74 C85.4,4.224 85.1844523,4.884 85.1844523,5.676 C85.1844523,6.204 85.2706714,6.688 85.4862191,7.084 C85.7017668,7.48 85.960424,7.788 86.3053004,8.052 C86.6501767,8.272 87.1243816,8.404 87.6848057,8.404 C88.1159011,8.404 88.4607774,8.36 88.7625442,8.272 C89.064311,8.184 89.3660777,8.052 89.6678445,7.832 L89.6678445,6.82 C89.1074205,7.26 88.5038869,7.436 87.8141343,7.436 C87.3399293,7.436 86.9519435,7.304 86.6501767,6.996 C86.3484099,6.688 86.1759717,6.292 86.1759717,5.808 L89.7971731,5.764 Z" id="Shape"></path>
                        <path d="M93.6339223,8.272 C93.84947,8.316 94.1512367,8.36 94.4530035,8.36 C94.970318,8.36 95.4014134,8.228 95.7031802,7.964 C96.0480565,7.7 96.1773852,7.348 96.1773852,6.908 C96.1773852,6.292 95.7462898,5.764 94.8840989,5.28 L94.5392226,5.06 C94.2805654,4.884 94.0650177,4.752 93.9787986,4.664 C93.84947,4.576 93.8063604,4.444 93.8063604,4.312 C93.8063604,4.18 93.84947,4.048 93.9787986,3.96 C94.1081272,3.872 94.2374558,3.828 94.4530035,3.828 C94.8409894,3.828 95.3151943,4.004 95.9187279,4.4 L95.9187279,3.388 C95.4014134,3.08 94.8840989,2.948 94.3667845,2.948 C93.8925795,2.948 93.5045936,3.08 93.2028269,3.344 C92.9010601,3.608 92.7286219,3.916 92.7286219,4.312 C92.7286219,4.62 92.814841,4.928 93.0303887,5.148 C93.2459364,5.412 93.6770318,5.72 94.3236749,6.116 C94.6685512,6.292 94.8409894,6.468 94.970318,6.556 C95.0565371,6.644 95.0996466,6.776 95.0996466,6.952 C95.0996466,7.084 95.0134276,7.216 94.8840989,7.348 C94.7116608,7.436 94.5392226,7.524 94.3236749,7.524 C94.1081272,7.524 93.84947,7.48 93.5908127,7.348 C93.2890459,7.216 92.9872792,7.04 92.7286219,6.864 L92.7286219,7.964 C93.1166078,8.096 93.375265,8.228 93.6339223,8.272" id="Shape"></path>
                        <path d="M1.25017668,8.272 C1.46572438,8.316 1.76749117,8.36 2.06925795,8.36 C2.58657244,8.36 3.01766784,8.228 3.31943463,7.964 C3.66431095,7.7 3.79363958,7.348 3.79363958,6.908 C3.79363958,6.292 3.36254417,5.764 2.50035336,5.28 L2.15547703,5.06 C1.89681979,4.884 1.68127208,4.752 1.595053,4.664 C1.46572438,4.576 1.42261484,4.444 1.42261484,4.312 C1.42261484,4.18 1.46572438,4.048 1.595053,3.96 C1.72438163,3.872 1.85371025,3.828 2.06925795,3.828 C2.45724382,3.828 2.93144876,4.004 3.53498233,4.4 L3.53498233,3.388 C3.01766784,3.08 2.50035336,2.948 1.98303887,2.948 C1.50883392,2.948 1.12084806,3.08 0.819081272,3.344 C0.517314488,3.608 0.344876325,3.916 0.344876325,4.312 C0.344876325,4.62 0.431095406,4.928 0.64664311,5.148 C0.862190813,5.412 1.29328622,5.72 1.93992933,6.116 C2.28480565,6.292 2.45724382,6.468 2.58657244,6.556 C2.67279152,6.644 2.71590106,6.776 2.71590106,6.952 C2.71590106,7.084 2.62968198,7.216 2.50035336,7.348 C2.32791519,7.436 2.15547703,7.524 1.93992933,7.524 C1.72438163,7.524 1.46572438,7.48 1.20706714,7.348 C0.905300353,7.216 0.603533569,7.04 0.344876325,6.864 L0.344876325,7.964 C0.68975265,8.096 0.991519435,8.228 1.25017668,8.272" id="Shape"></path>
                        <path d="M104.109541,3.08 L104.109541,4.004 L104.842403,4.004 L104.842403,8.272 L105.833922,8.272 L105.833922,4.004 L106.739223,4.004 L106.739223,3.08 L105.833922,3.08 L105.833922,2.772 C105.833922,2.2 105.920141,1.848 106.04947,1.628 C106.221908,1.408 106.480565,1.32 106.868551,1.32 C106.99788,1.32 107.170318,1.364 107.342756,1.408 L107.342756,0.396 C107.040989,0.308 106.825442,0.308 106.609894,0.308 C106.135689,0.308 105.704594,0.528 105.359717,0.924 C105.014841,1.32 104.842403,1.98 104.842403,2.816 L104.842403,3.124 L104.109541,3.08 Z" id="Shape"></path>
                        <path d="M113.679859,5.72 C113.679859,6.204 113.50742,6.644 113.205654,6.952 C112.903887,7.26 112.472792,7.436 111.998587,7.436 C111.481272,7.436 111.093286,7.26 110.791519,6.952 C110.489753,6.644 110.317314,6.248 110.317314,5.72 C110.317314,5.236 110.489753,4.796 110.791519,4.488 C111.093286,4.18 111.481272,4.004 111.998587,4.004 C112.515901,4.004 112.903887,4.18 113.248763,4.488 C113.50742,4.796 113.679859,5.192 113.679859,5.72 M114.714488,5.764 C114.714488,4.972 114.45583,4.356 113.938516,3.828 C113.421201,3.3 112.774558,3.08 111.998587,3.08 C111.222615,3.08 110.575972,3.344 110.058657,3.828 C109.541343,4.356 109.282686,4.972 109.282686,5.72 C109.282686,6.468 109.541343,7.084 110.058657,7.612 C110.575972,8.096 111.222615,8.36 111.998587,8.36 C112.774558,8.36 113.464311,8.096 113.981625,7.612 C114.45583,7.128 114.714488,6.512 114.714488,5.764" id="Shape"></path>
                        <path d="M117.990813,3.08 L117.990813,8.272 L119.025442,8.272 L119.025442,5.544 C119.025442,5.104 119.15477,4.752 119.370318,4.4 C119.628975,4.092 119.887633,3.916 120.232509,3.916 C120.534276,3.916 120.879152,4.092 121.224028,4.444 L121.741343,3.52 C121.310247,3.124 120.922261,2.948 120.534276,2.948 C120.060071,2.948 119.542756,3.344 119.068551,4.136 L119.025442,4.224 L119.025442,3.036 L117.990813,3.036 L117.990813,3.08 Z" id="Shape"></path>
                    </g>
                    <rect id="Rectangle-path" fill="#F89829" x="175" y="52" width="1" height="8"></rect>
                    <path d="M180.142857,52.1428571 C180.035714,52.25 180,52.3571429 180,52.5 C180,52.6428571 180.035714,52.75 180.142857,52.8571429 C180.25,52.9642857 180.357143,53 180.5,53 C180.642857,53 180.75,52.9642857 180.857143,52.8571429 C180.964286,52.75 181,52.6428571 181,52.5 C181,52.3571429 180.964286,52.25 180.857143,52.1428571 C180.75,52.0357143 180.642857,52 180.5,52 C180.357143,52 180.214286,52.0357143 180.142857,52.1428571" id="Shape" fill="#F89829"></path>
                    <rect id="Rectangle-path" fill="#F89829" x="180" y="54" width="1" height="5"></rect>
                    <g id="Group" transform="translate(183.000000, 51.000000)" fill="#F89829">
                        <path d="M0.39375,3.15 L0.39375,4.095 L1.1375,4.095 L1.1375,8.46 L2.14375,8.46 L2.14375,4.095 L3.0625,4.095 L3.0625,3.15 L2.14375,3.15 L2.14375,2.835 C2.14375,2.25 2.23125,1.89 2.3625,1.665 C2.5375,1.44 2.8,1.35 3.19375,1.35 C3.325,1.35 3.5,1.395 3.675,1.44 L3.675,0.405 C3.36875,0.315 3.15,0.315 2.93125,0.315 C2.45,0.315 2.0125,0.54 1.6625,0.945 C1.3125,1.35 1.1375,2.025 1.1375,2.88 L1.1375,3.195 L0.39375,3.15 Z" id="Shape"></path>
                        <path d="M9.31875,5.265 L6.69375,5.265 C6.78125,4.86 6.9125,4.5 7.13125,4.275 C7.35,4.05 7.65625,3.915 8.05,3.915 C8.44375,3.915 8.70625,4.05 8.925,4.275 C9.1875,4.545 9.31875,4.86 9.31875,5.265 Z M10.36875,5.895 L10.36875,5.76 C10.36875,4.95 10.15,4.275 9.75625,3.78 C9.3625,3.285 8.79375,3.06 8.09375,3.06 C7.39375,3.06 6.78125,3.33 6.34375,3.825 C5.90625,4.32 5.6875,4.995 5.6875,5.805 C5.6875,6.345 5.775,6.84 5.99375,7.245 C6.2125,7.65 6.475,7.965 6.825,8.235 C7.175,8.46 7.65625,8.595 8.225,8.595 C8.6625,8.595 9.0125,8.55 9.31875,8.46 C9.625,8.37 9.93125,8.235 10.2375,8.01 L10.2375,6.975 C9.66875,7.425 9.05625,7.605 8.35625,7.605 C7.875,7.605 7.48125,7.47 7.175,7.155 C6.86875,6.84 6.69375,6.435 6.69375,5.94 L10.36875,5.895 Z" id="Shape"></path>
                        <path d="M11.15625,1.035 C11.2,0.9 11.2875,0.765 11.41875,0.63 C11.50625,0.54 11.6375,0.45 11.8125,0.36 C11.94375,0.315 12.11875,0.27 12.29375,0.27 C12.46875,0.27 12.6,0.315 12.775,0.36 C12.90625,0.405 13.0375,0.495 13.16875,0.63 C13.25625,0.72 13.34375,0.855 13.43125,1.035 C13.51875,1.215 13.51875,1.35 13.51875,1.53 C13.51875,1.71 13.475,1.845 13.43125,2.025 C13.3875,2.205 13.3,2.295 13.16875,2.43 C13.08125,2.52 12.95,2.61 12.775,2.7 C12.64375,2.745 12.46875,2.79 12.29375,2.79 C12.11875,2.79 11.9875,2.745 11.8125,2.7 C11.68125,2.655 11.55,2.565 11.41875,2.43 C11.33125,2.34 11.24375,2.205 11.15625,2.025 C11.1125,1.89 11.06875,1.71 11.06875,1.53 C11.025,1.35 11.06875,1.215 11.15625,1.035 Z M10.89375,2.115 C10.98125,2.295 11.06875,2.475 11.2,2.61 C11.33125,2.745 11.50625,2.835 11.68125,2.925 C11.85625,3.015 12.03125,3.06 12.25,3.06 C12.46875,3.06 12.64375,3.015 12.81875,2.925 C12.99375,2.835 13.16875,2.745 13.3,2.61 C13.43125,2.475 13.51875,2.295 13.60625,2.115 C13.69375,1.935 13.7375,1.755 13.7375,1.53 C13.7375,1.305 13.69375,1.125 13.60625,0.945 C13.51875,0.765 13.43125,0.585 13.3,0.45 C13.16875,0.315 12.99375,0.225 12.81875,0.135 C12.64375,0.045 12.46875,0 12.25,0 C12.03125,0 11.85625,0.045 11.68125,0.135 C11.50625,0.225 11.33125,0.315 11.2,0.45 C11.06875,0.585 10.98125,0.765 10.89375,0.945 C10.80625,1.125 10.7625,1.305 10.7625,1.53 C10.7625,1.71 10.80625,1.935 10.89375,2.115 Z M11.9875,0.945 L12.20625,0.945 C12.25,0.945 12.29375,0.945 12.3375,0.945 C12.38125,0.945 12.425,0.945 12.46875,0.99 C12.5125,0.99 12.55625,1.035 12.55625,1.08 C12.6,1.125 12.6,1.17 12.6,1.215 C12.6,1.26 12.6,1.305 12.55625,1.35 C12.5125,1.395 12.5125,1.395 12.46875,1.44 C12.425,1.44 12.38125,1.485 12.3375,1.485 C12.29375,1.485 12.25,1.485 12.20625,1.485 L11.9875,1.485 L11.9875,0.945 Z M11.68125,2.385 L11.9875,2.385 L11.9875,1.665 L12.20625,1.665 L12.6,2.385 L12.90625,2.385 L12.46875,1.665 C12.6,1.665 12.6875,1.62 12.73125,1.53 C12.81875,1.44 12.8625,1.35 12.8625,1.17 C12.8625,0.99 12.81875,0.855 12.73125,0.81 C12.64375,0.72 12.46875,0.675 12.29375,0.675 L11.6375,0.675 L11.68125,2.385 Z" id="Shape"></path>
                    </g>
                    <path d="M52.1428571,52.1428571 C52.0357143,52.25 52,52.3571429 52,52.5 C52,52.6428571 52.0357143,52.75 52.1428571,52.8571429 C52.25,52.9642857 52.3571429,53 52.5,53 C52.6428571,53 52.75,52.9642857 52.8571429,52.8571429 C52.9642857,52.75 53,52.6428571 53,52.5 C53,52.3571429 52.9642857,52.25 52.8571429,52.1428571 C52.75,52.0357143 52.6428571,52 52.5,52 C52.3571429,52 52.2142857,52.0357143 52.1428571,52.1428571" id="Shape" fill="#F89829"></path>
                </g>
            </g>
        </g>
    </g>
</svg>