<?xml version="1.0" encoding="UTF-8"?> <svg xmlns="http://www.w3.org/2000/svg" xmlns:xlink="http://www.w3.org/1999/xlink" width="260px" height="32px" viewBox="0 0 260 32"><!-- Generator: Sketch 52.2 (67145) - http://www.bohemiancoding.com/sketch --><title>logo/dh/reverse</title><desc>Created with Sketch.</desc><g id="Symbols" stroke="none" stroke-width="1" fill="none" fill-rule="evenodd"><g id="blocks/nav/DB/D" transform="translate(-510.000000, -1.000000)" fill="#FFFFFF"><g id="top"><g><g id="logo/dh/white" transform="translate(510.000000, 1.000000)"><g id="dh-primary-logo-white"><path d="M66.9176471,5.10117647 C66.7386137,5.10065839 66.5607683,5.07207609 66.3905882,5.01647059 L64.3294118,4.39529412 C60.9807541,3.38815465 57.4098341,3.38815465 54.0611765,4.39529412 L51.9058824,5.04470588 C50.9442571,5.33059444 49.9329474,4.78280166 49.6470588,3.82117646 C49.3611703,2.85955126 49.908963,1.84824153 50.8705882,1.56235294 L53.0258824,0.941176471 C57.0549134,-0.277822772 61.3544983,-0.277822772 65.3835294,0.941176471 L67.4447059,1.56235294 C68.3112777,1.81989376 68.8565731,2.67548432 68.7240884,3.56975602 C68.5916037,4.46402772 67.8216666,5.12476901 66.9176471,5.12 L66.9176471,5.10117647 Z" id="Shape" fill-rule="nonzero"></path><path d="M8.06588235,10.1364706 L2.27764706,10.1364706 C1.67203803,10.1314025 1.08976025,10.3697403 0.661515001,10.7979856 C0.233269754,11.2262308 -0.00506812492,11.8085086 -3.55279499e-16,12.4141176 L-3.55279499e-16,28.5458824 C-0.00506812492,29.1514914 0.233269754,29.7337692 0.661515001,30.1620144 C1.08976025,30.5902597 1.67203803,30.8285975 2.27764706,30.8235294 L8.06588235,30.8235294 C14.5694118,30.8235294 19.0588235,26.2964706 19.0588235,20.4705882 L19.0588235,20.4235294 C19.0588235,14.5976471 14.5694118,10.1364706 8.06588235,10.1364706 Z M14.3058824,20.5364706 C14.3892236,22.2097443 13.7562709,23.8393715 12.5653508,25.0177178 C11.3744307,26.1960641 9.73817728,26.8116846 8.06588235,26.7105882 L4.55529412,26.7105882 L4.55529412,14.24 L8.06588235,14.24 C9.74534589,14.1553867 11.3821531,14.7855968 12.5712193,15.974663 C13.7602856,17.1637293 14.3904957,18.8005365 14.3058824,20.48 L14.3058824,20.5364706 Z" id="Shape" fill-rule="nonzero"></path><path d="M35.52,10.1364706 L28.3388235,10.1364706 C27.7332145,10.1314025 27.1509367,10.3697403 26.7226915,10.7979856 C26.2944462,11.2262308 26.0561083,11.8085086 26.0611765,12.4141176 L26.0611765,28.7247059 C26.0611765,29.9826156 27.0809138,31.0023529 28.3388235,31.0023529 C29.5967333,31.0023529 30.6164706,29.9826156 30.6164706,28.7247059 L30.6164706,24.2070588 L34.2494118,24.2070588 L38.6823529,29.8541176 C39.1909751,30.59588 40.0323718,31.0394616 40.9317647,31.04 C41.4966446,31.0500654 42.0421267,30.8339911 42.4468879,30.439835 C42.8516491,30.0456789 43.0821265,29.5061245 43.0870588,28.9411765 C43.0740102,28.2743877 42.8121663,27.6365628 42.3529412,27.1529412 L39.1905882,23.3129412 C41.7928795,22.3485688 43.4587779,19.796229 43.2941176,17.0258824 L43.2941176,16.9411765 C43.3607552,15.1967362 42.7191897,13.4994728 41.5152941,12.2352941 C39.8773927,10.7630313 37.7185415,10.0072639 35.52,10.1364706 Z M38.7105882,17.2611765 C38.7105882,19.0023529 37.44,20.1882353 35.2282353,20.1882353 L30.6164706,20.1882353 L30.6164706,14.24 L35.1341176,14.24 C37.3552941,14.24 38.7105882,15.2470588 38.7105882,17.1952941 L38.7105882,17.2611765 Z" id="Shape" fill-rule="nonzero"></path><path d="M61.9952941,11.6141176 C61.5865851,10.5211776 60.5361826,9.80208482 59.3694118,9.81647059 L59.1529412,9.81647059 L59.1529412,15.3411765 L61.9764706,22.1647059 L63.6611765,26.1835294 L65.0541176,29.4305882 C65.3716541,30.3670244 66.2488463,30.9984516 67.2376471,31.0023529 C67.8158496,31.0024412 68.3698405,30.7702056 68.7751364,30.3578303 C69.1804322,29.945455 69.4030408,29.3875261 69.3929412,28.8094118 C69.3857587,28.4820543 69.3053601,28.1604601 69.1576471,27.8682353 L61.9952941,11.6141176 Z" id="Shape" fill-rule="nonzero"></path><path d="M59.0964706,9.81647059 C57.9347013,9.81839884 56.8926967,10.5317425 56.4705882,11.6141176 L49.2611765,27.8964706 C49.1092,28.1885992 49.0194669,28.5090746 48.9976471,28.8376471 C48.9875438,29.3982874 49.2032093,29.9394605 49.5961504,30.3394816 C49.9890915,30.7395027 50.5263275,30.9647969 51.0870588,30.9647059 C52.0140076,30.9731157 52.8495455,30.4073478 53.1858824,29.5435294 L54.5882353,26.1835294 L56.2729412,22.1647059 L59.0964706,15.36 L59.0964706,9.81647059 Z" id="Shape" fill-rule="nonzero"></path><path d="M100.912941,9.95764706 C99.905,9.95745854 99.0167999,10.6197802 98.7294118,11.5858824 L94.6164706,24.2635294 L90.4847059,11.6988235 C90.2207395,10.640761 89.2693143,9.89903765 88.1788235,9.90117647 L87.8211765,9.90117647 C86.7341314,9.90901927 85.7880999,10.6465377 85.5152941,11.6988235 L81.3835294,24.2635294 L77.2705882,11.5858824 C76.9384515,10.5011995 75.8719476,9.81462643 74.7470812,9.96134814 C73.6222148,10.1080699 72.7675031,11.0452362 72.7247059,12.1788235 C72.7394499,12.4718711 72.7997819,12.7608297 72.9035294,13.0352941 L78.6917647,29.2894118 C78.9749459,30.3711212 79.936487,31.1372894 81.0541176,31.1717647 L81.5341176,31.1717647 C82.6492915,31.1470327 83.6078109,30.3740331 83.8682353,29.2894118 L87.9435294,17.44 L92.0188235,29.2894118 C92.2792479,30.3740331 93.2377673,31.1470327 94.3529412,31.1717647 L94.8235294,31.1717647 C95.9446887,31.1414012 96.9111276,30.3743862 97.1952941,29.2894118 L102.983529,13.0352941 C103.082656,12.749777 103.142806,12.4521907 103.162353,12.1505882 C103.159963,11.5598762 102.920372,10.9948862 102.497396,10.5825293 C102.074421,10.1701725 101.503523,9.94502007 100.912941,9.95764706 Z" id="Shape" fill-rule="nonzero"></path><path d="M124.818824,9.95764706 C124.214061,9.95253819 123.632718,10.1911696 123.205958,10.6197008 C122.779197,11.048232 122.542975,11.6305582 122.550588,12.2352941 L122.550588,18.3247059 L114.155294,18.3247059 L114.155294,12.2352941 C114.155294,10.9773844 113.135557,9.95764706 111.877647,9.95764706 C110.619737,9.95764706 109.6,10.9773844 109.6,12.2352941 L109.6,28.7247059 C109.6,29.9826156 110.619737,31.0023529 111.877647,31.0023529 C113.135557,31.0023529 114.155294,29.9826156 114.155294,28.7247059 L114.155294,22.5223529 L122.550588,22.5223529 L122.550588,28.7247059 C122.49606,29.5716572 122.91696,30.3786801 123.642698,30.8186857 C124.368435,31.2586914 125.278624,31.2586914 126.004361,30.8186857 C126.730099,30.3786801 127.150999,29.5716572 127.096471,28.7247059 L127.096471,12.2352941 C127.101539,11.6296851 126.863201,11.0474073 126.434956,10.6191621 C126.00671,10.1909168 125.424433,9.95257893 124.818824,9.95764706 Z" id="Shape" fill-rule="nonzero"></path><path d="M137.496471,9.95764706 C136.891708,9.95253819 136.310365,10.1911696 135.883605,10.6197008 C135.456844,11.048232 135.220622,11.6305582 135.228235,12.2352941 L135.228235,28.7247059 C135.173707,29.5716572 135.594607,30.3786801 136.320345,30.8186857 C137.046082,31.2586914 137.956271,31.2586914 138.682008,30.8186857 C139.407746,30.3786801 139.828646,29.5716572 139.774118,28.7247059 L139.774118,12.2352941 C139.779186,11.6296851 139.540848,11.0474073 139.112603,10.6191621 C138.684357,10.1909168 138.10208,9.95257893 137.496471,9.95764706 Z" id="Shape" fill-rule="nonzero"></path><path d="M156.291765,18.4376471 C152.715294,17.4964706 151.830588,17.0823529 151.830588,15.7176471 L151.830588,15.6611765 C151.830588,14.6541176 152.771765,13.8635294 154.494118,13.8635294 C156.038339,13.9270134 157.537018,14.4049003 158.832941,15.2470588 C159.180548,15.4626826 159.581535,15.5767846 159.990588,15.5764706 C160.938034,15.5848828 161.774708,14.9602083 162.035871,14.0494298 C162.297034,13.1386513 161.918524,12.1655263 161.110588,11.6705882 C159.136686,10.4390289 156.848604,9.80490352 154.522353,9.84470588 C150.296471,9.84470588 147.284706,12.32 147.284706,16.0752941 L147.284706,16.1317647 C147.284706,20.2447059 149.967059,21.3929412 154.136471,22.4564706 C157.590588,23.3411765 158.305882,23.9341176 158.305882,25.0917647 L158.305882,25.1482353 C158.305882,26.3623529 157.176471,27.0964706 155.322353,27.0964706 C153.399342,27.0724808 151.538781,26.4103594 150.032941,25.2141176 C149.654401,24.9427696 149.199862,24.7978442 148.734118,24.8 C148.170981,24.7898973 147.627414,25.0065546 147.225628,25.4012607 C146.823842,25.7959668 146.597556,26.3355963 146.597647,26.8988235 C146.594613,27.5782866 146.916374,28.2183117 147.463529,28.6211765 C149.746692,30.2549396 152.486652,31.1276434 155.294118,31.1152941 C159.755294,31.1152941 162.889412,28.8094118 162.889412,24.7058824 L162.889412,24.6494118 C162.823529,21.0447059 160.489412,19.5294118 156.291765,18.4376471 Z" id="Shape" fill-rule="nonzero"></path><path d="M183.068235,10.1364706 L169.769412,10.1364706 C168.610264,10.1364706 167.670588,11.0761459 167.670588,12.2352941 C167.670588,13.3944423 168.610264,14.3341176 169.769412,14.3341176 L174.117647,14.3341176 L174.117647,28.7247059 C174.063118,29.5716572 174.484019,30.3786801 175.209756,30.8186857 C175.935494,31.2586914 176.845682,31.2586914 177.57142,30.8186857 C178.297157,30.3786801 178.718058,29.5716572 178.663529,28.7247059 L178.663529,14.3341176 L183.04,14.3341176 C184.199148,14.3341176 185.138824,13.3944423 185.138824,12.2352941 C185.138824,11.0761459 184.199148,10.1364706 183.04,10.1364706 L183.068235,10.1364706 Z" id="Shape" fill-rule="nonzero"></path><path d="M200.649412,9.77882353 C197.756254,9.69226969 194.951428,10.7813849 192.874815,12.7977025 C190.798203,14.8140202 189.626941,17.5855479 189.628235,20.48 L189.628235,20.5364706 C189.886883,26.430587 194.7485,31.0715954 200.648269,31.0564419 C206.548039,31.0412884 211.385751,26.3753673 211.614118,20.48 L211.614118,20.4235294 C211.625989,17.540759 210.463997,14.7773294 208.395594,12.7692917 C206.327191,10.7612541 203.530567,9.68159748 200.649412,9.77882353 Z M206.851765,20.5364706 C206.921079,22.2241473 206.298039,23.8669073 205.12699,25.0841587 C203.955941,26.3014101 202.338507,26.9875192 200.649412,26.9835294 C198.947056,26.9794421 197.319125,26.2851882 196.137751,25.0594686 C194.956378,23.8337491 194.322557,22.1813512 194.381176,20.48 L194.381176,20.4235294 C194.311787,18.7342148 194.936095,17.0899766 196.109204,15.872432 C197.282313,14.6548874 198.902215,13.9699071 200.592941,13.9764706 C202.293661,13.9830998 203.919141,14.6784684 205.098465,15.9039016 C206.277789,17.1293347 206.910336,18.780276 206.851765,20.48 L206.851765,20.5364706 Z" id="Shape" fill-rule="nonzero"></path><path d="M228.075294,10.1364706 L220.894118,10.1364706 C220.288509,10.1314025 219.706231,10.3697403 219.277986,10.7979856 C218.84974,11.2262308 218.611402,11.8085086 218.616471,12.4141176 L218.616471,28.7247059 C218.561942,29.5716572 218.982843,30.3786801 219.70858,30.8186857 C220.434318,31.2586914 221.344506,31.2586914 222.070244,30.8186857 C222.795981,30.3786801 223.216882,29.5716572 223.162353,28.7247059 L223.162353,24.2070588 L226.823529,24.2070588 L231.256471,29.8541176 C231.760964,30.5956528 232.599594,31.0396337 233.496471,31.04 C234.06135,31.0500654 234.606833,30.8339911 235.011594,30.439835 C235.416355,30.0456789 235.646832,29.5061245 235.651765,28.9411765 C235.63036,28.2872907 235.369045,27.6641545 234.917647,27.1905882 L231.755294,23.3505882 C234.372474,22.3991889 236.055721,19.8437151 235.896471,17.0635294 L235.896471,16.9411765 C235.963108,15.1967362 235.321543,13.4994728 234.117647,12.2352941 C232.468047,10.7510508 230.289788,9.99442795 228.075294,10.1364706 Z M231.265882,17.2611765 C231.265882,19.0023529 229.995294,20.1882353 227.774118,20.1882353 L223.162353,20.1882353 L223.162353,14.24 L227.689412,14.24 C229.901176,14.24 231.265882,15.2470588 231.265882,17.1952941 L231.265882,17.2611765 Z" id="Shape" fill-rule="nonzero"></path><path d="M257.505882,9.92941176 C256.585664,9.96666371 255.752796,10.4849718 255.312941,11.2941176 L250.202353,18.5882353 L245.185882,11.3505882 C244.741866,10.5148571 243.882499,9.98269701 242.936471,9.95764706 C242.343244,9.94504663 241.769444,10.1693258 241.342001,10.5808716 C240.914559,10.9924174 240.668704,11.5573098 240.658824,12.1505882 C240.66279,12.737809 240.861392,13.3071344 241.223529,13.7694118 L247.896471,22.8423529 L247.896471,28.7247059 C247.896471,29.9826156 248.916208,31.0023529 250.174118,31.0023529 C251.432027,31.0023529 252.451765,29.9826156 252.451765,28.7247059 L252.451765,22.7576471 L259.124706,13.7411765 C259.480825,13.2843508 259.687829,12.7290527 259.717647,12.1505882 C259.750437,11.5537039 259.528294,10.9709599 259.106495,10.547366 C258.684696,10.1237721 258.102901,9.89915628 257.505882,9.92941176 Z" id="Shape" fill-rule="nonzero"></path></g></g></g></g></g></g></svg> 